<svg width="523" height="156" viewBox="0 0 523 156" fill="none" xmlns="http://www.w3.org/2000/svg">
<path d="M372.232 88.6052H361.27C359.349 88.6052 357.767 87.9271 356.411 86.571C356.411 86.571 356.411 86.571 356.298 86.458L356.185 86.345C355.055 85.1018 354.376 83.6327 354.376 81.9376V81.7116C354.376 80.9205 354.942 80.3554 355.733 80.3554C356.524 80.3554 357.202 80.9205 357.202 81.7116C357.202 82.7286 357.541 83.6327 358.332 84.4238L358.445 84.6498C359.236 85.4409 360.14 85.7799 361.27 85.7799H372.232C372.797 85.7799 373.362 85.6669 373.814 85.4409C374.266 85.2149 374.718 84.8758 375.057 84.5368C375.396 84.1978 375.735 83.7457 375.961 83.1807C376.187 82.7286 376.3 82.1636 376.3 81.5985C376.3 80.3554 375.961 79.4513 375.396 78.8863C374.718 78.2082 373.927 77.7562 372.91 77.5302C371.893 77.1911 370.763 76.9651 369.633 76.8521C368.39 76.7391 367.373 76.5131 366.469 76.4001C364.886 76.174 363.417 75.948 362.061 75.609C360.705 75.27 359.462 74.8179 358.332 74.2529C357.202 73.6878 356.298 72.8968 355.733 71.8797C355.055 70.9756 354.716 69.7325 354.716 68.2633C354.716 66.4552 355.394 64.76 356.75 63.4039L356.863 63.2909C358.219 62.0478 359.801 61.3697 361.609 61.3697H372.006C373.814 61.3697 375.396 61.9348 376.639 63.1779L376.752 63.2909C378.109 64.647 378.787 66.2292 378.787 68.1503C378.787 68.9414 378.222 69.5065 377.431 69.5065C376.526 69.5065 375.961 68.9414 375.961 68.1503C375.961 67.0202 375.622 66.1162 374.831 65.3251L374.379 64.9861C373.701 64.421 372.797 64.082 371.893 64.082H361.609C360.705 64.082 359.801 64.421 359.123 64.9861L358.784 65.3251C357.993 66.1162 357.654 67.0202 357.654 68.1503C357.654 69.1674 357.88 70.0715 358.445 70.6366C359.01 71.3146 359.688 71.7667 360.592 72.2187C361.496 72.6707 362.626 72.8968 363.869 73.1228C365.112 73.3488 366.469 73.5748 367.825 73.6878C369.181 73.9138 370.537 74.1399 371.78 74.3659C373.136 74.5919 374.379 75.044 375.396 75.496C376.526 76.061 377.431 76.7391 378.109 77.7562C378.787 78.6603 379.239 80.0164 379.239 81.4855C379.239 82.3896 379.013 83.2937 378.674 84.1978C378.335 84.9888 377.77 85.7799 377.205 86.345C376.526 86.91 375.848 87.4751 375.057 87.8141C374.04 88.3791 373.249 88.6052 372.232 88.6052Z" fill="black"/>
<path d="M166.215 88.6056H155.253C153.332 88.6056 151.75 87.9276 150.394 86.5715C150.394 86.5715 150.394 86.5715 150.281 86.4585L150.168 86.3454C149.038 85.1023 148.359 83.6332 148.359 81.9381V81.712C148.359 80.921 148.925 80.3559 149.716 80.3559C150.507 80.3559 151.185 80.921 151.185 81.712C151.185 82.7291 151.524 83.6332 152.315 84.4243L152.428 84.6503C153.219 85.4414 154.123 85.7804 155.253 85.7804H166.215C166.78 85.7804 167.345 85.6674 167.797 85.4414C168.249 85.2153 168.701 84.8763 169.04 84.5373C169.379 84.1983 169.718 83.7462 169.944 83.1812C170.17 82.7291 170.283 82.1641 170.283 81.599C170.283 80.3559 169.944 79.4518 169.379 78.8868C168.701 78.2087 167.91 77.7567 166.893 77.5306C165.876 77.1916 164.746 76.9656 163.616 76.8526C162.373 76.7396 161.356 76.5136 160.452 76.4005C158.869 76.1745 157.4 75.9485 156.044 75.6095C154.688 75.2705 153.445 74.8184 152.315 74.2534C151.185 73.6883 150.281 72.8972 149.716 71.8801C149.038 70.9761 148.699 69.733 148.699 68.2638C148.699 66.4557 149.377 64.7605 150.733 63.4044L150.846 63.2914C152.202 62.0483 153.784 61.3702 155.592 61.3702H165.989C167.797 61.3702 169.379 61.9353 170.622 63.1784L170.735 63.2914C172.092 64.6475 172.77 66.2297 172.77 68.1508C172.77 68.9419 172.205 69.5069 171.414 69.5069C170.509 69.5069 169.944 68.9419 169.944 68.1508C169.944 67.0207 169.605 66.1166 168.814 65.3256L168.362 64.9865C167.684 64.4215 166.78 64.0825 165.876 64.0825H155.479C154.575 64.0825 153.671 64.4215 152.993 64.9865L152.654 65.3256C151.863 66.1166 151.524 67.0207 151.524 68.1508C151.524 69.1679 151.75 70.072 152.315 70.637C152.88 71.3151 153.558 71.7671 154.462 72.2192C155.366 72.6712 156.496 72.8972 157.739 73.1233C158.982 73.3493 160.339 73.5753 161.695 73.6883C163.051 73.9143 164.407 74.1404 165.65 74.3664C167.006 74.5924 168.249 75.0444 169.266 75.4965C170.396 76.0615 171.301 76.7396 171.979 77.7567C172.657 78.6608 173.109 80.0169 173.109 81.486C173.109 82.3901 172.883 83.2942 172.544 84.1983C172.205 84.9893 171.64 85.7804 171.074 86.3454C170.396 86.9105 169.718 87.4755 168.927 87.8146C168.023 88.3796 167.119 88.6056 166.215 88.6056Z" fill="black"/>
<path d="M195.711 88.6048C194.92 88.6048 194.355 88.0397 194.355 87.2487V81.3721C192.999 81.2591 191.642 80.8071 190.399 80.242C189.156 79.564 188.026 78.7729 187.122 77.7558C186.218 76.7387 185.427 75.4956 184.862 74.2525C184.297 72.8964 184.071 71.5403 184.071 70.0711V63.1775C184.071 62.3864 184.636 61.8214 185.427 61.8214C186.331 61.8214 186.896 62.3864 186.896 63.1775V70.0711C186.896 71.2012 187.122 72.3313 187.574 73.3484C188.026 74.3655 188.704 75.3826 189.495 76.1737C190.286 76.9647 191.19 77.6428 192.207 78.0948C193.225 78.5469 194.355 78.7729 195.598 78.7729H196.163C197.406 78.7729 198.536 78.5469 199.553 78.0948C200.57 77.6428 201.587 76.9647 202.265 76.1737C203.056 75.3826 203.621 74.4785 204.187 73.3484C204.639 72.3313 204.865 71.2012 204.865 70.0711V63.1775C204.865 62.3864 205.43 61.8214 206.334 61.8214C207.125 61.8214 207.69 62.3864 207.69 63.1775V70.0711C207.69 71.6533 207.351 73.1224 206.786 74.4785C206.221 75.8346 205.43 76.9648 204.413 77.9818C204.413 78.0949 204.3 78.0948 204.3 78.0948C203.395 78.9989 202.265 79.79 201.022 80.355C199.892 80.9201 198.536 81.2591 197.293 81.3721V87.2487C197.067 88.0397 196.502 88.6048 195.711 88.6048Z" fill="black"/>
<path d="M241.366 88.6054C240.914 88.6054 240.462 88.4924 240.01 88.2664C239.558 88.0404 239.219 87.8144 238.993 87.4753L221.137 64.4213C221.024 64.3083 221.024 64.3083 221.024 64.3083C220.911 64.3083 220.911 64.3083 220.798 64.4213C220.685 64.5343 220.685 64.5343 220.685 64.5343V87.2493C220.685 88.0404 220.12 88.6054 219.329 88.6054C218.538 88.6054 217.973 88.0404 217.973 87.2493V64.5343C217.973 63.6302 218.312 62.9522 218.877 62.3871C219.781 61.596 221.024 61.37 222.154 61.9351C222.606 62.1611 222.945 62.5001 223.171 62.8392L241.027 85.8932C241.027 85.8932 241.027 86.0062 241.14 86.0062C241.253 86.0062 241.366 86.0062 241.366 85.8932C241.479 85.7802 241.479 85.7802 241.479 85.7802V63.0652C241.479 62.2741 242.044 61.709 242.835 61.709C243.626 61.709 244.191 62.2741 244.191 63.0652V85.7802C244.191 86.5713 243.852 87.2493 243.4 87.8144C242.835 88.2664 242.157 88.6054 241.366 88.6054Z" fill="black"/>
<path d="M267.359 88.6013C266.455 88.6013 265.89 88.0362 265.89 87.2452V64.4172H256.736C255.945 64.4172 255.38 63.8521 255.38 62.948C255.38 62.157 255.945 61.5919 256.736 61.5919H277.756C278.547 61.5919 279.112 62.157 279.112 62.948C279.112 63.8521 278.547 64.4172 277.756 64.4172H268.602V87.2452C268.715 88.0362 268.15 88.6013 267.359 88.6013Z" fill="black"/>
<path d="M309.739 88.6013C308.948 88.6013 308.383 88.0362 308.383 87.2452V81.7077H290.866V87.2452C290.866 88.0362 290.301 88.6013 289.397 88.6013C288.606 88.6013 288.041 88.0362 288.041 87.2452V62.948C288.041 62.157 288.606 61.5919 289.397 61.5919C290.188 61.5919 290.866 62.157 290.866 62.948V78.8824H308.383V62.948C308.383 62.157 308.948 61.5919 309.739 61.5919C310.53 61.5919 311.095 62.157 311.095 62.948V87.2452C311.095 88.0362 310.53 88.6013 309.739 88.6013Z" fill="black"/>
<path d="M343.302 88.6047H334.374C332.792 88.6047 331.323 88.2657 329.967 87.7006C328.611 87.1356 327.368 86.2315 326.351 85.2144C325.334 84.1973 324.43 82.9542 323.864 81.5981C323.299 80.2419 322.96 78.7728 322.96 77.1907V73.1223C322.96 71.5402 323.299 70.071 323.864 68.7149C324.43 67.3588 325.334 66.1157 326.351 65.0986C327.368 64.0815 328.611 63.1774 329.967 62.6124C331.323 62.0473 332.905 61.7083 334.374 61.7083H343.302C344.206 61.7083 344.771 62.2733 344.771 63.0644C344.771 63.9685 344.206 64.5335 343.302 64.5335H334.374C333.131 64.5335 332.001 64.7596 330.984 65.2116C329.967 65.6636 329.063 66.3417 328.272 67.1328C327.481 67.9238 326.803 68.8279 326.351 69.845C325.899 70.8621 325.673 71.9922 325.673 73.2353V73.9134H341.72C342.511 73.9134 343.076 74.4784 343.076 75.2695C343.076 76.1736 342.511 76.7386 341.72 76.7386H325.673V77.4167C325.673 78.6598 325.899 79.7899 326.351 80.807C326.803 81.8241 327.481 82.7282 328.272 83.5192C329.063 84.3103 329.967 84.9884 330.984 85.4404C332.001 85.8924 333.131 86.1185 334.374 86.1185H343.302C344.206 86.1185 344.771 86.6835 344.771 87.5876C344.771 88.0396 344.206 88.6047 343.302 88.6047Z" fill="black"/>
<path d="M392.01 88.6013C391.219 88.6013 390.653 88.0362 390.653 87.2452V62.948C390.653 62.157 391.219 61.5919 392.01 61.5919C392.801 61.5919 393.479 62.157 393.479 62.948V87.2452C393.479 88.0362 392.914 88.6013 392.01 88.6013Z" fill="black"/>
<path d="M428.625 88.6013H410.204C409.526 88.6013 408.848 88.4883 408.17 88.1493C407.605 87.9232 407.04 87.5842 406.588 87.1322C406.136 86.6801 405.797 86.1151 405.458 85.55C405.232 84.985 405.119 84.3069 405.119 83.6289C405.119 82.7248 405.345 81.8207 405.797 81.1426C406.249 80.4646 406.814 79.7865 407.605 79.3345L425.687 68.7115C426.026 68.4855 426.365 68.2595 426.591 67.9205C426.817 67.5814 426.93 67.2424 426.817 66.7904C426.817 65.9993 426.591 65.4342 426.139 64.9822C425.687 64.5302 425.122 64.3041 424.557 64.3041H407.153C406.362 64.3041 405.797 63.7391 405.797 62.948C405.797 62.157 406.362 61.5919 407.153 61.5919H424.557C425.235 61.5919 425.913 61.7049 426.478 62.0439C427.043 62.27 427.608 62.609 428.06 63.061C428.512 63.5131 428.851 64.0781 429.19 64.6432C429.416 65.2082 429.642 65.8863 429.642 66.5643C429.642 67.4684 429.416 68.2595 428.964 69.0506C428.512 69.8416 427.947 70.4067 427.156 70.8587L409.074 81.4817C408.735 81.7077 408.509 81.9337 408.283 82.3857C408.057 82.7248 407.944 83.0638 407.944 83.4028C407.944 84.0809 408.17 84.6459 408.622 85.211C409.074 85.663 409.639 85.8891 410.317 85.8891H428.738C429.529 85.8891 430.094 86.4541 430.094 87.2452C429.981 88.0362 429.416 88.6013 428.625 88.6013Z" fill="black"/>
<path d="M460.606 88.6047H451.678C450.096 88.6047 448.627 88.2657 447.27 87.7006C445.914 87.1356 444.671 86.2315 443.654 85.2144C442.637 84.1973 441.733 82.9542 441.168 81.5981C440.603 80.2419 440.264 78.7728 440.264 77.1907V73.1223C440.264 71.5402 440.603 70.071 441.168 68.7149C441.733 67.3588 442.637 66.1157 443.654 65.0986C444.671 64.0815 445.914 63.1774 447.27 62.6124C448.627 62.0473 450.209 61.7083 451.678 61.7083H460.606C461.51 61.7083 462.075 62.2733 462.075 63.0644C462.075 63.9685 461.51 64.5335 460.606 64.5335H451.678C450.435 64.5335 449.305 64.7596 448.288 65.2116C447.27 65.6636 446.366 66.3417 445.575 67.1328C444.784 67.9238 444.106 68.8279 443.654 69.845C443.202 70.8621 442.976 71.9922 442.976 73.2353V73.9134H459.024C459.815 73.9134 460.38 74.4784 460.38 75.2695C460.38 76.1736 459.815 76.7386 459.024 76.7386H442.976V77.4167C442.976 78.6598 443.202 79.7899 443.654 80.807C444.106 81.8241 444.784 82.7282 445.575 83.5192C446.366 84.3103 447.27 84.9884 448.288 85.4404C449.305 85.8924 450.435 86.1185 451.678 86.1185H460.606C461.51 86.1185 462.075 86.6835 462.075 87.5876C461.962 88.0396 461.397 88.6047 460.606 88.6047Z" fill="black"/>
<path d="M484.338 88.6047H478.009C476.427 88.6047 475.071 88.0396 473.941 87.0226L473.828 86.9095C472.697 85.7794 472.132 84.3103 472.132 82.7282V67.5848C472.132 66.0027 472.697 64.5335 473.828 63.4034L473.941 63.2904C475.071 62.2733 476.427 61.7083 478.009 61.7083H484.338C485.92 61.7083 487.389 62.0473 488.745 62.6124C490.101 63.1774 491.344 64.0815 492.361 65.0986C493.378 66.1157 494.169 67.3588 494.847 68.7149C495.413 70.071 495.752 71.5402 495.752 73.1223V77.1907C495.752 78.7728 495.413 80.2419 494.847 81.5981C494.282 82.9542 493.378 84.1973 492.361 85.2144C491.344 86.2315 490.101 87.1356 488.745 87.7006C487.389 88.2657 485.807 88.6047 484.338 88.6047ZM475.975 85.1014C476.653 85.5534 477.218 85.7794 478.009 85.7794H484.338C485.468 85.7794 486.598 85.5534 487.615 85.1014C488.632 84.6493 489.649 83.9713 490.44 83.1802C491.231 82.3891 491.909 81.4851 492.361 80.468C492.813 79.4509 493.039 78.3208 493.039 77.0777V73.0093C493.039 71.7662 492.813 70.6361 492.361 69.619C491.909 68.6019 491.231 67.5848 490.44 66.9068C489.649 66.1157 488.745 65.5506 487.615 64.9856C486.598 64.5335 485.468 64.3075 484.338 64.3075H478.009C477.331 64.3075 476.653 64.5335 476.088 64.9856C476.088 64.9856 475.975 64.9856 475.975 65.0986L475.749 65.3246C475.184 65.8897 474.845 66.6807 474.845 67.5848V82.7282C474.845 83.6322 475.184 84.3103 475.749 84.9884L475.975 85.1014Z" fill="black"/>
<path d="M104.012 28L93.5692 46.1553H100.804C99.3707 54.5504 91.9994 61.0344 83.1948 61.1027C80.8059 61.1027 78.4171 61.7169 76.3013 62.9455C73.1616 64.7201 70.9775 67.6549 70.022 71.1358C69.0664 74.6167 69.5442 78.2341 71.387 81.3738C73.1616 84.5134 76.0965 86.6975 79.5774 87.653C80.7377 87.9943 81.898 88.1308 83.0583 88.1308C85.3789 88.1308 87.6995 87.5165 89.8153 86.288C92.955 84.5134 95.139 81.5785 96.0946 78.0976C97.0501 74.6167 96.5724 70.9993 94.7295 67.8597C94.1153 66.8359 93.4327 65.9486 92.6137 65.1296C100.19 61.7852 105.718 54.6869 106.81 46.2235H114.455L104.012 28ZM84.9694 67.3137C86.8804 67.8597 88.5185 69.0882 89.5423 70.7946C90.5661 72.5009 90.8391 74.5485 90.2931 76.4596C89.7471 78.3706 88.5185 80.0087 86.8122 81.0325C85.1059 82.0563 83.0583 82.3293 81.1472 81.7833C79.2361 81.2372 77.5981 80.0087 76.5743 78.3024C75.5505 76.5961 75.2775 74.5485 75.8235 72.6374C76.3695 70.7263 77.5981 69.0882 79.3044 68.0644C80.4647 67.3819 81.6932 67.0407 82.99 67.0407C82.99 67.0407 82.99 67.0407 83.0583 67.0407C83.0583 67.0407 83.0583 67.0407 83.1265 67.0407C83.6726 67.0407 84.3551 67.1089 84.9694 67.3137Z" fill="black"/>
<path d="M112.407 90.3142L92.3404 84.308L97.1181 104.716L102.374 99.8014C107.083 106.968 106.127 116.728 99.7117 122.803C98.4832 123.963 98.4149 125.806 99.5752 127.034C100.735 128.263 102.578 128.331 103.807 127.171C112.68 118.844 113.772 105.262 106.81 95.638L112.407 90.3142Z" fill="black"/>
<path d="M54.2549 89.0132L69.6801 74.8849L49.7503 68.5374L51.3201 75.5674C42.7202 75.9769 34.8029 70.1754 32.8918 61.5073C32.5505 59.8693 30.9125 58.8455 29.3426 59.255C27.7046 59.5962 26.6808 61.2343 27.0903 62.8041C29.7522 74.6801 40.8091 82.5975 52.6851 81.5054L54.2549 89.0132Z" fill="black"/>
</svg>
